<?xml version="1.0" encoding="UTF-8"?><svg id="Layer_1" xmlns="http://www.w3.org/2000/svg" viewBox="0 0 982.4 516.56"><defs><style>.cls-1{stroke-width:3px;}.cls-1,.cls-2,.cls-3,.cls-4,.cls-5,.cls-6,.cls-7,.cls-8,.cls-9,.cls-10,.cls-11,.cls-12{fill:none;stroke-miterlimit:10;}.cls-1,.cls-8{stroke:#307aab;}.cls-13{fill:#f29c1f;}.cls-14{fill:#e57e25;}.cls-15{fill:#fff;}.cls-16{fill:#ecf0f1;}.cls-17{fill:#bdc3c7;}.cls-18{fill:#283747;}.cls-19{fill:#2c3e50;}.cls-20,.cls-21{fill:#3b97d3;}.cls-22{letter-spacing:-.01em;}.cls-2{stroke-width:5px;}.cls-2,.cls-4,.cls-5,.cls-10,.cls-11{stroke:#bdc3c7;}.cls-3{stroke:#3b97d3;}.cls-3,.cls-4{stroke-width:9.54px;}.cls-23{letter-spacing:0em;}.cls-5,.cls-6{stroke-width:2px;}.cls-6,.cls-7,.cls-9{stroke:#283747;}.cls-21{font-size:17.27px;}.cls-21,.cls-24{font-family:Montserrat-Bold, Montserrat;}.cls-25{font-family:Montserrat-Regular, Montserrat;font-size:20.87px;}.cls-26{letter-spacing:0em;}.cls-9,.cls-10{stroke-width:5.75px;}.cls-24{font-size:12px;}.cls-27{letter-spacing:-.02em;}.cls-28{letter-spacing:-.04em;}.cls-11,.cls-12{stroke-width:8.21px;}.cls-12{stroke:#2c3e50;}</style></defs><circle class="cls-17" cx="778.46" cy="124.15" r="7.29"/><circle class="cls-20" cx="119.89" cy="228.58" r="9.35"/><circle class="cls-16" cx="283.53" cy="192.32" r="9.35"/><polygon class="cls-20" points="445.05 32.92 509.53 261.94 440.25 34.33 445.05 32.92"/><polygon class="cls-13" points="779.32 523.24 531.03 271.42 782.85 519.7 779.32 523.24"/><polygon class="cls-19" points="27.92 214.89 502.89 268.42 27.07 223.06 27.92 214.89"/><polygon class="cls-20" points="902.32 59.03 511.71 269.22 899.92 54.64 902.32 59.03"/><g><path class="cls-10" d="M389.36,214.68c6.46-16.73,16.43-32.41,29.92-45.9,11.27-11.27,24.06-20.08,37.72-26.44"/><path class="cls-9" d="M395.63,324.07c-7.57-14.4-12.3-29.89-14.2-45.66"/><path class="cls-10" d="M644.14,281.01c-3.87,27.48-16.37,53.99-37.5,75.13-4.08,4.08-8.36,7.84-12.81,11.28"/><path class="cls-9" d="M519.82,130.15c31.58,1.63,62.69,14.5,86.81,38.63,9.28,9.28,16.9,19.6,22.85,30.58"/><g><path class="cls-11" d="M406.05,105.29c21.58-13.77,46.32-23.36,73.26-27.46,22.5-3.42,44.67-2.73,65.76,1.51"/><path class="cls-12" d="M320.68,236.41c3.48-22.96,11.16-44.79,22.32-64.54"/><path class="cls-11" d="M642.93,397.22c-27.71,28.34-64.52,48.24-106.72,54.66-8.15,1.24-16.26,1.94-24.28,2.13"/><path class="cls-12" d="M696.5,251.91c.92,13.23,.44,26.29-1.32,39.01"/><path class="cls-11" d="M668.16,164.46c9.34,14.9,16.69,31.29,21.64,48.84"/></g><g><path class="cls-3" d="M440.87,472.8c-27.67-10.91-53.56-27.65-75.78-50.2-18.56-18.83-33.02-40.16-43.41-62.89"/><path class="cls-4" d="M622.42,463.72c-23.97,12.37-49.74,20.04-75.93,23"/><path class="cls-4" d="M554.02,50.94c45.55,6.75,89.36,27.81,124.17,63.14,6.72,6.82,12.91,13.97,18.56,21.4"/></g><path class="cls-5" d="M419.5,339.77c-6.45-7.97-11.77-16.56-15.96-25.55"/><path class="cls-2" d="M471.32,377.6c-2.59-1-5.15-2.09-7.67-3.26"/><path class="cls-5" d="M573.82,371.71c-13.49,7.09-28.01,11.52-42.79,13.31"/><path class="cls-5" d="M560.45,145.81c7.91,3.02,15.58,6.88,22.86,11.58"/><path class="cls-5" d="M533.47,138.87c9.17,1.29,18.22,3.61,26.97,6.95"/><path class="cls-5" d="M420.74,182.29c2.38-2.84,4.9-5.61,7.57-8.28,4.94-4.94,10.19-9.37,15.69-13.31"/><path class="cls-5" d="M392.12,255.35c.53-10.26,2.33-20.48,5.39-30.38"/><g><path class="cls-1" d="M532.87,87.31c15.42,2.03,30.18,6.04,44.03,11.77"/><path class="cls-7" d="M445.57,97.89c11.06-4.35,22.66-7.6,34.65-9.63"/><path class="cls-7" d="M344.34,202.13c7.28-20.3,18.17-38.82,31.87-54.83"/><path class="cls-8" d="M609.27,406.16c-30.28,20.92-67.37,32.54-106.97,30.92-7.65-.31-15.16-1.11-22.52-2.36"/><path class="cls-7" d="M684.08,283.41c-1.52,12.22-4.29,24.04-8.17,35.31"/><path class="cls-6" d="M673.87,198.64c5.85,15.25,9.62,31.49,11,48.37"/></g></g><circle class="cls-15" cx="508.71" cy="268.42" r="69.05"/><circle class="cls-20" cx="432.38" cy="130.15" r="6.16"/><circle class="cls-19" cx="305.39" cy="362.87" r="3.16"/><circle class="cls-14" cx="724.89" cy="226.97" r="9.1"/><text class="cls-18" transform="translate(460.63 272.07)"><tspan class="cls-25"><tspan class="cls-26" x="0" y="0">C</tspan><tspan x="14.92" y="0">SC </tspan><tspan class="cls-26" x="48.23" y="0">2</tspan><tspan class="cls-23" x="60" y="0">0</tspan><tspan x="73.78" y="0">22</tspan></tspan><tspan class="cls-24"><tspan class="cls-27" x="0" y="14.4">V</tspan><tspan x="8.77" y="14.4">IS</tspan><tspan class="cls-22" x="20.36" y="14.4">U</tspan><tspan x="29.64" y="14.4">ALIZ</tspan><tspan class="cls-28" x="58.07" y="14.4">A</tspan><tspan x="66.84" y="14.4">TION</tspan></tspan></text><text class="cls-21" transform="translate(460.62 251.91)"><tspan x="0" y="0">CERN</tspan></text><circle class="cls-14" cx="211.55" cy="93.07" r="3.16"/><circle class="cls-20" cx="292.89" cy="195.48" r="3.16"/><circle class="cls-14" cx="388.34" cy="119.99" r="3.16"/><circle class="cls-20" cx="573.82" cy="461.81" r="3.16"/><circle class="cls-20" cx="403.54" cy="337.47" r="3.16"/><circle class="cls-20" cx="438.54" cy="19.58" r="7.29"/><circle class="cls-14" cx="474.73" cy="464.97" r="5.03"/></svg>