<?xml version="1.0" encoding="utf-8"?>
<!-- Generator: Adobe Illustrator 27.8.1, SVG Export Plug-In . SVG Version: 6.00 Build 0)  -->
<svg version="1.1" id="Layer_1" xmlns="http://www.w3.org/2000/svg" xmlns:xlink="http://www.w3.org/1999/xlink" x="0px" y="0px"
	 viewBox="0 0 982.4 516.6" style="enable-background:new 0 0 982.4 516.6;" xml:space="preserve">
<style type="text/css">
	.st0{fill:#BDC3C7;}
	.st1{fill:#3B97D3;}
	.st2{fill:#ECF0F1;}
	.st3{fill:#F29C1F;}
	.st4{fill:#2C3E50;}
	.st5{fill:none;stroke:#BDC3C7;stroke-width:5.75;stroke-miterlimit:10;}
	.st6{fill:none;stroke:#283747;stroke-width:5.75;stroke-miterlimit:10;}
	.st7{fill:none;stroke:#BDC3C7;stroke-width:8.21;stroke-miterlimit:10;}
	.st8{fill:none;stroke:#2C3E50;stroke-width:8.21;stroke-miterlimit:10;}
	.st9{fill:none;stroke:#3B97D3;stroke-width:9.54;stroke-miterlimit:10;}
	.st10{fill:none;stroke:#BDC3C7;stroke-width:9.54;stroke-miterlimit:10;}
	.st11{fill:none;stroke:#BDC3C7;stroke-width:2;stroke-miterlimit:10;}
	.st12{fill:none;stroke:#BDC3C7;stroke-width:5;stroke-miterlimit:10;}
	.st13{fill:none;stroke:#307AAB;stroke-width:3;stroke-miterlimit:10;}
	.st14{fill:none;stroke:#283747;stroke-miterlimit:10;}
	.st15{fill:none;stroke:#307AAB;stroke-miterlimit:10;}
	.st16{fill:none;stroke:#283747;stroke-width:2;stroke-miterlimit:10;}
	.st17{fill:#FFFFFF;}
	.st18{fill:#E57E25;}
	.st19{fill:#283747;}
	.st20{font-family:'Montserrat-Bold';}
	.st21{font-size:12px;}
	.st22{font-size:17.27px;}
	.st23{fill:none;}
	.st24{font-family:'Montserrat-Regular';}
	.st25{font-size:20.87px;}
</style>
<circle class="st0" cx="778.5" cy="124.2" r="7.3"/>
<circle class="st1" cx="119.9" cy="228.6" r="9.4"/>
<circle class="st2" cx="283.5" cy="192.3" r="9.4"/>
<polygon class="st1" points="445,32.9 509.5,261.9 440.2,34.3 "/>
<polygon class="st3" points="779.3,523.2 531,271.4 782.8,519.7 "/>
<polygon class="st4" points="27.9,214.9 502.9,268.4 27.1,223.1 "/>
<polygon class="st1" points="902.3,59 511.7,269.2 899.9,54.6 "/>
<g>
	<path class="st5" d="M389.4,214.7c6.5-16.7,16.4-32.4,29.9-45.9c11.3-11.3,24.1-20.1,37.7-26.4"/>
	<path class="st6" d="M395.6,324.1c-7.6-14.4-12.3-29.9-14.2-45.7"/>
	<path class="st5" d="M644.1,281c-3.9,27.5-16.4,54-37.5,75.1c-4.1,4.1-8.4,7.8-12.8,11.3"/>
	<path class="st6" d="M519.8,130.1c31.6,1.6,62.7,14.5,86.8,38.6c9.3,9.3,16.9,19.6,22.8,30.6"/>
	<g>
		<path class="st7" d="M406,105.3c21.6-13.8,46.3-23.4,73.3-27.5c22.5-3.4,44.7-2.7,65.8,1.5"/>
		<path class="st8" d="M320.7,236.4c3.5-23,11.2-44.8,22.3-64.5"/>
		<path class="st7" d="M642.9,397.2c-27.7,28.3-64.5,48.2-106.7,54.7c-8.2,1.2-16.3,1.9-24.3,2.1"/>
		<path class="st8" d="M696.5,251.9c0.9,13.2,0.4,26.3-1.3,39"/>
		<path class="st7" d="M668.2,164.5c9.3,14.9,16.7,31.3,21.6,48.8"/>
	</g>
	<g>
		<path class="st9" d="M440.9,472.8c-27.7-10.9-53.6-27.6-75.8-50.2c-18.6-18.8-33-40.2-43.4-62.9"/>
		<path class="st10" d="M622.4,463.7c-24,12.4-49.7,20-75.9,23"/>
		<path class="st10" d="M554,50.9c45.5,6.8,89.4,27.8,124.2,63.1c6.7,6.8,12.9,14,18.6,21.4"/>
	</g>
	<path class="st11" d="M419.5,339.8c-6.5-8-11.8-16.6-16-25.5"/>
	<path class="st12" d="M471.3,377.6c-2.6-1-5.1-2.1-7.7-3.3"/>
	<path class="st11" d="M573.8,371.7c-13.5,7.1-28,11.5-42.8,13.3"/>
	<path class="st11" d="M560.5,145.8c7.9,3,15.6,6.9,22.9,11.6"/>
	<path class="st11" d="M533.5,138.9c9.2,1.3,18.2,3.6,27,6.9"/>
	<path class="st11" d="M420.7,182.3c2.4-2.8,4.9-5.6,7.6-8.3c4.9-4.9,10.2-9.4,15.7-13.3"/>
	<path class="st11" d="M392.1,255.4c0.5-10.3,2.3-20.5,5.4-30.4"/>
	<g>
		<path class="st13" d="M532.9,87.3c15.4,2,30.2,6,44,11.8"/>
		<path class="st14" d="M445.6,97.9c11.1-4.3,22.7-7.6,34.6-9.6"/>
		<path class="st14" d="M344.3,202.1c7.3-20.3,18.2-38.8,31.9-54.8"/>
		<path class="st15" d="M609.3,406.2c-30.3,20.9-67.4,32.5-107,30.9c-7.6-0.3-15.2-1.1-22.5-2.4"/>
		<path class="st14" d="M684.1,283.4c-1.5,12.2-4.3,24-8.2,35.3"/>
		<path class="st16" d="M673.9,198.6c5.8,15.2,9.6,31.5,11,48.4"/>
	</g>
</g>
<circle class="st17" cx="508.7" cy="268.4" r="69.1"/>
<circle class="st1" cx="432.4" cy="130.1" r="6.2"/>
<circle class="st4" cx="305.4" cy="362.9" r="3.2"/>
<circle class="st18" cx="724.9" cy="227" r="9.1"/>
<text transform="matrix(1 0 0 1 460.63 286.47)" class="st19 st20 st21">V</text>
<text transform="matrix(1 0 0 1 469.4 286.47)" class="st19 st20 st21">IS</text>
<text transform="matrix(1 0 0 1 480.99 286.47)" class="st19 st20 st21">U</text>
<text transform="matrix(1 0 0 1 490.27 286.47)" class="st19 st20 st21">ALIZ</text>
<text transform="matrix(1 0 0 1 518.7 286.47)" class="st19 st20 st21">A</text>
<text transform="matrix(1 0 0 1 527.47 286.47)" class="st19 st20 st21">TION</text>
<text transform="matrix(1 0 0 1 460.62 251.91)" class="st1 st20 st22">CERN</text>
<circle class="st18" cx="211.6" cy="93.1" r="3.2"/>
<circle class="st1" cx="292.9" cy="195.5" r="3.2"/>
<circle class="st18" cx="388.3" cy="120" r="3.2"/>
<circle class="st1" cx="573.8" cy="461.8" r="3.2"/>
<circle class="st1" cx="403.5" cy="337.5" r="3.2"/>
<circle class="st1" cx="438.5" cy="19.6" r="7.3"/>
<circle class="st18" cx="474.7" cy="465" r="5"/>
<g>
	<rect x="459.1" y="256.3" class="st23" width="100.9" height="19"/>
	<text transform="matrix(1 0 0 1 459.0562 271.7651)" class="st19 st24 st25">CSC 2023</text>
</g>
</svg>
